# xmcd
#
# Track frame offsets:
#	150
#	11222
#	18234
#	34042
#	43237
#	53695
#	68772
#	80773
#	95599
#	106695
#	118651
#	128772
#	145505
#	156490
#	167351
#	178177
#	187664
#	201714
#	218349
#	246743
#	260983
#	275924
#	292436
#	307348
#	320588
#	337012
#
# Disc length: 4535 seconds
#
# Revision: 3
# Processed by: cddbd v1.5.1PL2 Copyright (c) Steve Scherf et al.
# Submitted via: audiograbber 1.83.01
#
DISCID=9a11b51a
DTITLE=Various Artist - Long Way To The Top [Disc 1]
DYEAR=2001
DGENRE=Pop
TTITLE0=Johnny O'Keefe - Wild One
TTITLE1=Schneider Sisters - Washboard Rock 'n' Roll
TTITLE2=Slim Dusty - Losin' My Blues Tonight
TTITLE3=Jimmy Little - Sweet Mama
TTITLE4=Col Joye - Oh Yeah, Uh-Huh
TTITLE5=Betty McQuade - Midnight Bus
TTITLE6=Del Juliana - I Was A Fool For Leaving
TTITLE7=Atlantics - Bombora
TTITLE8=Billy Thorpe and The Aztecs - Mashed Potato
TTITLE9=Dinah Lee - Don't You Know Yockomo
TTITLE10=Seekers - Sinner Man
TTITLE11=The Easybeats - Good Times
TTITLE12=Masters Apprentices - Undecided
TTITLE13=Steve and The Board - The Giggle Eyed Goo
TTITLE14=The Loved Ones - Ever Lovin' Man
TTITLE15=The Purple Hearts - Early In The Morning
TTITLE16=Normie Rowe - It's Not Easy
TTITLE17=Ronnie Burns - Smiley
TTITLE18=Russell Morris - The Real Thing
TTITLE19=The New Dream - Groupie
TTITLE20=Helen Reddy - I Am Woman
TTITLE21=Bee Gees - Marley Purt Drive
TTITLE22=Fraternity - Seasons Of Change
TTITLE23=Max Merritt and The Meteors - I've Been Away Too Long
TTITLE24=G. Wayne Thomas - Open Your Heart
TTITLE25=Tully - Paradise Of Perfect Silence
EXTD=
EXTT0=
EXTT1=
EXTT2=
EXTT3=
EXTT4=
EXTT5=
EXTT6=
EXTT7=
EXTT8=
EXTT9=
EXTT10=
EXTT11=
EXTT12=
EXTT13=
EXTT14=
EXTT15=
EXTT16=
EXTT17=
EXTT18=
EXTT19=
EXTT20=
EXTT21=
EXTT22=
EXTT23=
EXTT24=
EXTT25=
PLAYORDER=
